<svg xmlns="http://www.w3.org/2000/svg" viewBox="0 0 636 580" preserveAspectRatio="xMidYMid meet" font-family="D2Coding">
  <defs>
    <marker id="arrow-orange-12" viewBox="0 0 10 10" refX="9" refY="5" markerWidth="10" markerHeight="10" orient="auto">
      <path d="M 0 0 L 10 5 L 0 10 z" fill="#FF9900"/>
    </marker>
  </defs>

  <!-- Gate 1: Discovery -->
  <rect x="20" y="14" width="596" height="92" rx="6" fill="#1A2744" stroke="#FF9900" stroke-width="2"/>
  <text x="40" y="42" fill="#FF9900" font-size="14" font-weight="bold">⛔ GATE 1  ·  Discovery</text>
  <text x="450" y="42" text-anchor="end" fill="#999999" font-size="11" font-style="italic">⏱ ~10분</text>
  <text x="40" y="68" fill="#FFFFFF" font-size="13">사용자 10 질문 응답</text>
  <text x="40" y="92" fill="#999999" font-size="12">산업·채널·PII·KPI·매칭·옵션·리전·비용</text>

  <line x1="318" y1="115" x2="318" y2="125" stroke="#FF9900" stroke-width="2" marker-end="url(#arrow-orange-12)"/>

  <!-- Gate 2: Design -->
  <rect x="20" y="135" width="596" height="92" rx="6" fill="#1A2744" stroke="#FF9900" stroke-width="2"/>
  <text x="40" y="163" fill="#FF9900" font-size="14" font-weight="bold">⛔ GATE 2  ·  Design</text>
  <text x="450" y="163" text-anchor="end" fill="#999999" font-size="11" font-style="italic">⏱ ~5분</text>
  <text x="40" y="189" fill="#FFFFFF" font-size="13">Skill 자동 결정 → 사용자 검토</text>
  <text x="40" y="213" fill="#999999" font-size="12">9-레이어 + Pipeline + Graph + Cross + 비용</text>

  <line x1="318" y1="236" x2="318" y2="246" stroke="#FF9900" stroke-width="2" marker-end="url(#arrow-orange-12)"/>

  <!-- Gate 3: Generate -->
  <rect x="20" y="256" width="596" height="92" rx="6" fill="#1A2744" stroke="#FF9900" stroke-width="2"/>
  <text x="40" y="284" fill="#FF9900" font-size="14" font-weight="bold">⛔ GATE 3  ·  Generate</text>
  <text x="450" y="284" text-anchor="end" fill="#999999" font-size="11" font-style="italic">⏱ ~10분</text>
  <text x="40" y="310" fill="#FFFFFF" font-size="13">CDK + Lambda + Frontend 점진 생성</text>
  <text x="40" y="334" fill="#999999" font-size="12">Core → Matching → Enrichment → Graph 순</text>

  <line x1="318" y1="357" x2="318" y2="367" stroke="#FF9900" stroke-width="2" marker-end="url(#arrow-orange-12)"/>

  <!-- Gate 4: Validate -->
  <rect x="20" y="377" width="596" height="92" rx="6" fill="#1A2744" stroke="#FF9900" stroke-width="2"/>
  <text x="40" y="405" fill="#FF9900" font-size="14" font-weight="bold">⛔ GATE 4  ·  Validate</text>
  <text x="450" y="405" text-anchor="end" fill="#999999" font-size="11" font-style="italic">⏱ ~3분</text>
  <text x="40" y="431" fill="#FFFFFF" font-size="13">cdk synth + AWS Knowledge MCP 검증</text>
  <text x="40" y="455" fill="#999999" font-size="12">CRITICAL 0건까지 자동 수정 반복</text>

  <line x1="318" y1="478" x2="318" y2="488" stroke="#FF9900" stroke-width="2" marker-end="url(#arrow-orange-12)"/>

  <!-- Gate 5: Deploy -->
  <rect x="20" y="498" width="596" height="76" rx="6" fill="#1A2744" stroke="#00A8A8" stroke-width="2.5"/>
  <text x="40" y="526" fill="#00A8A8" font-size="14" font-weight="bold">⛔ GATE 5  ·  Deploy</text>
  <text x="450" y="526" text-anchor="end" fill="#999999" font-size="11" font-style="italic">⏱ ~30분</text>
  <text x="40" y="552" fill="#FFFFFF" font-size="13">배포 가이드 + 콘솔 수동 단계 안내</text>
  <text x="40" y="572" fill="#00A8A8" font-size="12" font-weight="bold">→ UCP 시스템 가동</text>
</svg>
