<svg xmlns="http://www.w3.org/2000/svg" viewBox="0 0 1296 624" preserveAspectRatio="xMidYMid meet" font-family="D2Coding">
  <!-- Card 1: Minimal -->
  <rect x="20" y="20" width="412" height="584" rx="12" fill="#1A2744" stroke="#00A8A8" stroke-width="2.5"/>
  <rect x="20" y="20" width="412" height="100" rx="12" fill="#00A8A8"/>
  <text x="226" y="60" text-anchor="middle" fill="#FFFFFF" font-size="22" font-weight="bold">💰  Minimal</text>
  <text x="226" y="90" text-anchor="middle" fill="#FFFFFF" font-size="32" font-weight="bold">$50 - 100</text>
  <text x="226" y="110" text-anchor="middle" fill="#FFFFFF" font-size="11" font-style="italic">/ month</text>

  <text x="40" y="150" fill="#00A8A8" font-size="13" font-weight="bold">포함</text>
  <text x="40" y="178" fill="#FFFFFF" font-size="11">  ✓ Foundation (KMS + SQS DLQ)</text>
  <text x="40" y="198" fill="#FFFFFF" font-size="11">  ✓ Storage (S3)</text>
  <text x="40" y="218" fill="#FFFFFF" font-size="11">  ✓ Profiles (Connect + CP Domain)</text>
  <text x="40" y="238" fill="#FFFFFF" font-size="11">  ✓ Matching (ER Rule-based)</text>
  <text x="40" y="258" fill="#FFFFFF" font-size="11">  ✓ Ingestion (CSV)</text>
  <text x="40" y="278" fill="#FFFFFF" font-size="11">  ✓ Auth (Cognito)</text>
  <text x="40" y="298" fill="#FFFFFF" font-size="11">  ✓ API (API GW + Lambda × 6)</text>
  <text x="40" y="318" fill="#FFFFFF" font-size="11">  ✓ Bedrock (ER 자동 규칙)</text>

  <text x="40" y="358" fill="#5A6A7A" font-size="13" font-weight="bold">미포함</text>
  <text x="40" y="385" fill="#5A6A7A" font-size="11">  ✗ ETL Transform</text>
  <text x="40" y="405" fill="#5A6A7A" font-size="11">  ✗ Graph (Neptune)</text>
  <text x="40" y="425" fill="#5A6A7A" font-size="11">  ✗ Cross-Domain</text>
  <text x="40" y="445" fill="#5A6A7A" font-size="11">  ✗ ML Matching</text>
  <text x="40" y="465" fill="#5A6A7A" font-size="11">  ✗ Kinesis 실시간</text>

  <line x1="40" y1="490" x2="412" y2="490" stroke="#00A8A8" stroke-width="1" opacity="0.4"/>
  <text x="40" y="515" fill="#00A8A8" font-size="13" font-weight="bold">적합 시나리오</text>
  <text x="40" y="540" fill="#E6EDF3" font-size="11">  • PoC, 데모 환경</text>
  <text x="40" y="560" fill="#E6EDF3" font-size="11">  • 단일 도메인 단순 사례</text>
  <text x="40" y="580" fill="#E6EDF3" font-size="11">  • 프로필 &lt; 10K</text>
  <text x="40" y="598" fill="#999999" font-size="10" font-style="italic">    (Hotel, 단일 브랜드 Retail)</text>

  <!-- Card 2: Standard -->
  <rect x="446" y="20" width="404" height="584" rx="12" fill="#1A2744" stroke="#FF9900" stroke-width="2.5"/>
  <rect x="446" y="20" width="404" height="100" rx="12" fill="#FF9900"/>
  <text x="648" y="60" text-anchor="middle" fill="#161E2D" font-size="22" font-weight="bold">💰💰  Standard</text>
  <text x="648" y="90" text-anchor="middle" fill="#161E2D" font-size="32" font-weight="bold">$100 - 200</text>
  <text x="648" y="110" text-anchor="middle" fill="#161E2D" font-size="11" font-style="italic">/ month</text>

  <text x="466" y="150" fill="#FF9900" font-size="13" font-weight="bold">Minimal 포함 +</text>
  <text x="466" y="178" fill="#FFFFFF" font-size="11">  ✓ Kinesis (실시간 스트림)</text>
  <text x="466" y="198" fill="#FFFFFF" font-size="11">  ✓ ER ML Matching</text>
  <text x="466" y="218" fill="#FFFFFF" font-size="11">  ✓ ETL Transform (Glue ETL Job)</text>
  <text x="466" y="238" fill="#FFFFFF" font-size="11">  ✓ EventBridge Pipes</text>
  <text x="466" y="258" fill="#FFFFFF" font-size="11">  ✓ Step Functions (오케스트레이션)</text>

  <text x="466" y="298" fill="#5A6A7A" font-size="13" font-weight="bold">미포함</text>
  <text x="466" y="325" fill="#5A6A7A" font-size="11">  ✗ Graph (Neptune)</text>
  <text x="466" y="345" fill="#5A6A7A" font-size="11">  ✗ Cross-Domain (Platform 통합)</text>
  <text x="466" y="365" fill="#5A6A7A" font-size="11">  ✗ Ecosystem CLV</text>

  <text x="466" y="405" fill="#FF9900" font-size="13" font-weight="bold">추가 가치</text>
  <text x="466" y="432" fill="#E6EDF3" font-size="11">  • 실시간 이벤트 → 즉시 프로필 갱신</text>
  <text x="466" y="452" fill="#E6EDF3" font-size="11">  • 한영 혼용 등 변형 큰 데이터 매칭</text>
  <text x="466" y="472" fill="#E6EDF3" font-size="11">    정확도 10-30% 향상</text>

  <line x1="466" y1="490" x2="836" y2="490" stroke="#FF9900" stroke-width="1" opacity="0.4"/>
  <text x="466" y="515" fill="#FF9900" font-size="13" font-weight="bold">적합 시나리오</text>
  <text x="466" y="540" fill="#E6EDF3" font-size="11">  • 프로덕션 단일 도메인</text>
  <text x="466" y="560" fill="#E6EDF3" font-size="11">  • 실시간 주문·예약 처리</text>
  <text x="466" y="580" fill="#E6EDF3" font-size="11">  • 프로필 10K - 100K</text>
  <text x="466" y="598" fill="#999999" font-size="10" font-style="italic">    (Retail 실시간, Hotel 변형 데이터)</text>


  <!-- Card 3: Full -->
  <rect x="864" y="20" width="412" height="584" rx="12" fill="#1A2744" stroke="#FF4D8B" stroke-width="2.5"/>
  <rect x="864" y="20" width="412" height="100" rx="12" fill="#FF4D8B"/>
  <text x="1070" y="60" text-anchor="middle" fill="#FFFFFF" font-size="22" font-weight="bold">💰💰💰  Full</text>
  <text x="1070" y="90" text-anchor="middle" fill="#FFFFFF" font-size="32" font-weight="bold">$400 - 600</text>
  <text x="1070" y="110" text-anchor="middle" fill="#FFFFFF" font-size="11" font-style="italic">/ month</text>

  <text x="884" y="150" fill="#FF4D8B" font-size="13" font-weight="bold">Standard 포함 +</text>
  <text x="884" y="178" fill="#FFFFFF" font-size="11">  ✓ Graph (Neptune db.r5.large)</text>
  <text x="884" y="198" fill="#FFFFFF" font-size="11">  ✓ GraphRAG Lambda</text>
  <text x="884" y="218" fill="#FFFFFF" font-size="11">  ✓ VPC + NAT Gateway</text>
  <text x="884" y="238" fill="#FFFFFF" font-size="11">  ✓ Cross-Domain (멀티 Connect)</text>
  <text x="884" y="258" fill="#FFFFFF" font-size="11">  ✓ Platform CP Domain</text>
  <text x="884" y="278" fill="#FFFFFF" font-size="11">  ✓ Cross-Domain ER Workflow</text>
  <text x="884" y="298" fill="#FFFFFF" font-size="11">  ✓ Ecosystem CLV (시너지 1.2-1.5x)</text>

  <text x="884" y="335" fill="#FF4D8B" font-size="13" font-weight="bold">사전 신청 필수</text>
  <text x="884" y="362" fill="#FFFFFF" font-size="11">  ⚠ Connect Instance Quota 4-5개</text>
  <text x="884" y="382" fill="#FFFFFF" font-size="11">    (Service Quotas 콘솔)</text>
  <text x="884" y="402" fill="#FFFFFF" font-size="11">  ⚠ ER ML 리전 가용성 확인</text>

  <text x="884" y="438" fill="#FF4D8B" font-size="13" font-weight="bold">추가 가치</text>
  <text x="884" y="465" fill="#E6EDF3" font-size="11">  • 사업부 통합 360° 뷰</text>
  <text x="884" y="485" fill="#E6EDF3" font-size="11">  • 관계 분석 (가족, 동행자)</text>
  <text x="884" y="505" fill="#E6EDF3" font-size="11">  • GraphRAG AI 어시스턴트</text>

  <line x1="884" y1="525" x2="1276" y2="525" stroke="#FF4D8B" stroke-width="1" opacity="0.4"/>
  <text x="884" y="550" fill="#FF4D8B" font-size="13" font-weight="bold">적합 시나리오</text>
  <text x="884" y="575" fill="#E6EDF3" font-size="11">  • 사업부 통합 (그룹사)</text>
  <text x="884" y="595" fill="#E6EDF3" font-size="11">  • 프로필 100K+, Travel 등</text>

</svg>
