<svg xmlns="http://www.w3.org/2000/svg" viewBox="0 0 636 580" preserveAspectRatio="xMidYMid meet" font-family="D2Coding">
  <defs>
    <marker id="arr-22b" viewBox="0 0 10 10" refX="9" refY="5" markerWidth="8" markerHeight="8" orient="auto">
      <path d="M 0 0 L 10 5 L 0 10 z" fill="#FF4D8B"/>
    </marker>
  </defs>

  <!-- 사업부별 Connect Instance × N -->
  <rect x="20" y="20" width="596" height="155" rx="8" fill="#1A2744" stroke="#FF4D8B" stroke-width="2"/>
  <text x="318" y="48" text-anchor="middle" fill="#FF4D8B" font-size="13" font-weight="bold">사업부별 Connect Instance × N ★</text>

  <!-- 3개 사업부 박스 -->
  <g transform="translate(40, 65)">
    <rect x="0" y="0" width="170" height="95" rx="6" fill="#161E2D" stroke="#FF9900" stroke-width="1.5"/>
    <image href="/Users/dohkim/.kiro/skills/aws-pptx-generator/assets/aws-icons/service/Arch_Amazon-Connect_48.png" x="10" y="10" width="32" height="32"/>
    <text x="50" y="25" fill="#FFFFFF" font-size="11" font-weight="bold">Airline</text>
    <text x="50" y="42" fill="#999999" font-size="10">Domain A</text>
    <text x="10" y="65" fill="#FFFFFF" font-size="10">  • Booking, FFP</text>
    <text x="10" y="82" fill="#FFFFFF" font-size="10">  • ER × 3</text>

    <rect x="190" y="0" width="170" height="95" rx="6" fill="#161E2D" stroke="#FF9900" stroke-width="1.5"/>
    <image href="/Users/dohkim/.kiro/skills/aws-pptx-generator/assets/aws-icons/service/Arch_Amazon-Connect_48.png" x="200" y="10" width="32" height="32"/>
    <text x="240" y="25" fill="#FFFFFF" font-size="11" font-weight="bold">Hotel</text>
    <text x="240" y="42" fill="#999999" font-size="10">Domain B</text>
    <text x="200" y="65" fill="#FFFFFF" font-size="10">  • Reservation</text>
    <text x="200" y="82" fill="#FFFFFF" font-size="10">  • ER × 3</text>

    <rect x="380" y="0" width="170" height="95" rx="6" fill="#161E2D" stroke="#FF9900" stroke-width="1.5"/>
    <image href="/Users/dohkim/.kiro/skills/aws-pptx-generator/assets/aws-icons/service/Arch_Amazon-Connect_48.png" x="390" y="10" width="32" height="32"/>
    <text x="430" y="25" fill="#FFFFFF" font-size="11" font-weight="bold">Agency</text>
    <text x="430" y="42" fill="#999999" font-size="10">Domain C</text>
    <text x="390" y="65" fill="#FFFFFF" font-size="10">  • Package</text>
    <text x="390" y="82" fill="#FFFFFF" font-size="10">  • ER × 3</text>
  </g>

  <!-- 3 도메인 → Platform 화살표 -->
  <line x1="125" y1="180" x2="280" y2="220" stroke="#FF4D8B" stroke-width="2" marker-end="url(#arr-22b)"/>
  <line x1="318" y1="180" x2="318" y2="218" stroke="#FF4D8B" stroke-width="2" marker-end="url(#arr-22b)"/>
  <line x1="510" y1="180" x2="356" y2="220" stroke="#FF4D8B" stroke-width="2" marker-end="url(#arr-22b)"/>

  <!-- Platform CP Domain ★ -->
  <rect x="20" y="225" width="596" height="120" rx="8" fill="#161E2D" stroke="#FF4D8B" stroke-width="2.5"/>
  <text x="318" y="252" text-anchor="middle" fill="#FF4D8B" font-size="14" font-weight="bold">★ Platform CP Domain (통합 뷰)</text>
  <line x1="60" y1="262" x2="576" y2="262" stroke="#FF4D8B" stroke-width="1" opacity="0.4"/>

  <text x="40" y="285" fill="#FFFFFF" font-size="11">  • Cross-Domain ER Workflow  (사업부 간 동일 고객 식별)</text>
  <text x="40" y="307" fill="#FFFFFF" font-size="11">  • Ecosystem CLV  =  Σ(도메인별 매출) × 시너지 계수</text>
  <text x="40" y="329" fill="#FFFFFF" font-size="11">  • 도메인 매출 + 멀티-사업부 가입 시 1.2~1.5x 시너지 보너스</text>

  <!-- 적합 -->
  <rect x="20" y="365" width="596" height="125" rx="8" fill="#1A2744" stroke="#FF4D8B" stroke-width="1.5"/>
  <text x="40" y="390" fill="#FF4D8B" font-size="13" font-weight="bold">✓ 적합 시나리오</text>
  <text x="40" y="415" fill="#E6EDF3" font-size="11">  • 여행 그룹  (항공 + 호텔 + 여행사)</text>
  <text x="40" y="435" fill="#E6EDF3" font-size="11">  • 금융 그룹  (은행 + 카드 + 증권 + 보험)</text>
  <text x="40" y="455" fill="#E6EDF3" font-size="11">  • 리테일 그룹  (백화점 + 할인점 + H&amp;B)</text>
  <text x="40" y="475" fill="#E6EDF3" font-size="11">  • 통신 (모바일 + 인터넷 + IPTV)</text>

  <!-- 비용 / quota -->
  <rect x="20" y="500" width="596" height="70" rx="8" fill="#161E2D" stroke="#FF4D8B" stroke-width="2.5"/>
  <text x="40" y="525" fill="#FFFFFF" font-size="12">Connect quota 사용</text>
  <text x="596" y="528" text-anchor="end" fill="#FF4D8B" font-size="14" font-weight="bold">N+1개  →  증가 신청 필수</text>
  <text x="40" y="550" fill="#FFFFFF" font-size="12">월 비용 추가</text>
  <text x="596" y="553" text-anchor="end" fill="#FF4D8B" font-size="18" font-weight="bold">도메인 수 비례</text>
</svg>
